# xmcd
#
# Track frame offsets:
#	150
#	15995
#	35063
#	51483
#	67558
#	84825
#	109045
#	125123
#	143128
#	163000
#	178073
#	191508
#	207283
#	220525
#	232585
#	261098
#
# Disc length: 3805 seconds
#
# Revision: 1
# Processed by: cddbd v1.5.2PL0 Copyright (c) Steve Scherf et al.
# Submitted via: audiograbber 1.83.01
#
DISCID=d20edb10
DTITLE=Kathy Durkin - My Own Native Land
DYEAR=1900
DGENRE=
TTITLE0=My Own Native Land
TTITLE1=Teddy O'Neill
TTITLE2=Blue Hills Of Breffni - Old Dungarvan Oak - Star Of The County Down
TTITLE3=Doonaree
TTITLE4=My Own Dear Galway Bay
TTITLE5=Flight Of Earls
TTITLE6=Raglan Road
TTITLE7=Danny Boy
TTITLE8=Working Man
TTITLE9=Come Back Paddy Reilly
TTITLE10=Jigs
TTITLE11=Mother From Mayo
TTITLE12=Shanagolden
TTITLE13=She Moved Thru' The Fair
TTITLE14=The Town I Loved So Well
TTITLE15=The Water Is Wide
EXTD=
EXTT0=
EXTT1=
EXTT2=
EXTT3=
EXTT4=
EXTT5=
EXTT6=
EXTT7=
EXTT8=
EXTT9=
EXTT10=
EXTT11=
EXTT12=
EXTT13=
EXTT14=
EXTT15=
PLAYORDER=
